<mxfile host="65bd71144e">
    <diagram id="YJa1YVeCBQMnrFL9bhSD" name="第 1 页">
        <mxGraphModel dx="951" dy="667" grid="0" gridSize="10" guides="0" tooltips="1" connect="1" arrows="1" fold="1" page="1" pageScale="1" pageWidth="2339" pageHeight="3300" background="#FFFFFF" math="0" shadow="0">
            <root>
                <mxCell id="0"/>
                <mxCell id="1" parent="0"/>
                <mxCell id="105" value="" style="rounded=1;whiteSpace=wrap;html=1;fontSize=16;fillColor=#DECECE;" parent="1" vertex="1">
                    <mxGeometry x="270" y="1100" width="270" height="60" as="geometry"/>
                </mxCell>
                <mxCell id="52" value="" style="rounded=1;whiteSpace=wrap;html=1;fontSize=16;fillColor=#DECECE;" parent="1" vertex="1">
                    <mxGeometry x="292" y="468" width="276" height="60" as="geometry"/>
                </mxCell>
                <mxCell id="70" value="&lt;font style=&quot;font-size: 16px;&quot; color=&quot;#1a1a1a&quot;&gt;Level0 Table 1&lt;/font&gt;" style="text;html=1;strokeColor=none;fillColor=none;align=center;verticalAlign=middle;whiteSpace=wrap;rounded=0;strokeWidth=3;" parent="1" vertex="1">
                    <mxGeometry x="176" y="480" width="105" height="41" as="geometry"/>
                </mxCell>
                <mxCell id="85" value="ace" style="rounded=1;whiteSpace=wrap;html=1;fontSize=16;fillColor=#CEABC5;" parent="1" vertex="1">
                    <mxGeometry x="305" y="480" width="69" height="39" as="geometry"/>
                </mxCell>
                <mxCell id="86" value="cat" style="rounded=1;whiteSpace=wrap;html=1;fontSize=16;fillColor=#CEABC5;" parent="1" vertex="1">
                    <mxGeometry x="391" y="480" width="69" height="39" as="geometry"/>
                </mxCell>
                <mxCell id="87" value="dog" style="rounded=1;whiteSpace=wrap;html=1;fontSize=16;fillColor=#CEABC5;" parent="1" vertex="1">
                    <mxGeometry x="476" y="480" width="69" height="39" as="geometry"/>
                </mxCell>
                <mxCell id="88" value="iters[0]" style="shape=callout;whiteSpace=wrap;html=1;perimeter=calloutPerimeter;fillColor=#797979;" parent="1" vertex="1">
                    <mxGeometry x="307" y="420" width="72" height="58" as="geometry"/>
                </mxCell>
                <mxCell id="89" value="" style="rounded=1;whiteSpace=wrap;html=1;fontSize=16;fillColor=#DECECE;" parent="1" vertex="1">
                    <mxGeometry x="292" y="588" width="276" height="60" as="geometry"/>
                </mxCell>
                <mxCell id="90" value="&lt;font style=&quot;font-size: 16px;&quot; color=&quot;#1a1a1a&quot;&gt;Level0 Table 2&lt;/font&gt;" style="text;html=1;strokeColor=none;fillColor=none;align=center;verticalAlign=middle;whiteSpace=wrap;rounded=0;strokeWidth=3;" parent="1" vertex="1">
                    <mxGeometry x="176" y="600" width="105" height="41" as="geometry"/>
                </mxCell>
                <mxCell id="91" value="all" style="rounded=1;whiteSpace=wrap;html=1;fontSize=16;fillColor=#CEABC5;" parent="1" vertex="1">
                    <mxGeometry x="305" y="600" width="69" height="39" as="geometry"/>
                </mxCell>
                <mxCell id="92" value="boy" style="rounded=1;whiteSpace=wrap;html=1;fontSize=16;fillColor=#CEABC5;" parent="1" vertex="1">
                    <mxGeometry x="391" y="600" width="69" height="39" as="geometry"/>
                </mxCell>
                <mxCell id="93" value="echo" style="rounded=1;whiteSpace=wrap;html=1;fontSize=16;fillColor=#CEABC5;" parent="1" vertex="1">
                    <mxGeometry x="476" y="600" width="69" height="39" as="geometry"/>
                </mxCell>
                <mxCell id="94" value="iters[1]" style="shape=callout;whiteSpace=wrap;html=1;perimeter=calloutPerimeter;fillColor=#797979;" parent="1" vertex="1">
                    <mxGeometry x="307" y="540" width="72" height="58" as="geometry"/>
                </mxCell>
                <mxCell id="95" value="" style="rounded=1;whiteSpace=wrap;html=1;fontSize=16;fillColor=#DECECE;" parent="1" vertex="1">
                    <mxGeometry x="289" y="718" width="276" height="60" as="geometry"/>
                </mxCell>
                <mxCell id="96" value="&lt;font style=&quot;font-size: 16px;&quot; color=&quot;#1a1a1a&quot;&gt;Level1 Table 3&lt;/font&gt;" style="text;html=1;strokeColor=none;fillColor=none;align=center;verticalAlign=middle;whiteSpace=wrap;rounded=0;strokeWidth=3;" parent="1" vertex="1">
                    <mxGeometry x="173" y="730" width="105" height="41" as="geometry"/>
                </mxCell>
                <mxCell id="97" value="avoid" style="rounded=1;whiteSpace=wrap;html=1;fontSize=16;fillColor=#CEABC5;" parent="1" vertex="1">
                    <mxGeometry x="302" y="730" width="69" height="39" as="geometry"/>
                </mxCell>
                <mxCell id="98" value="boy" style="rounded=1;whiteSpace=wrap;html=1;fontSize=16;fillColor=#CEABC5;" parent="1" vertex="1">
                    <mxGeometry x="388" y="730" width="69" height="39" as="geometry"/>
                </mxCell>
                <mxCell id="99" value="dog" style="rounded=1;whiteSpace=wrap;html=1;fontSize=16;fillColor=#CEABC5;" parent="1" vertex="1">
                    <mxGeometry x="473" y="730" width="69" height="39" as="geometry"/>
                </mxCell>
                <mxCell id="100" value="iters[2]" style="shape=callout;whiteSpace=wrap;html=1;perimeter=calloutPerimeter;fillColor=#797979;" parent="1" vertex="1">
                    <mxGeometry x="304" y="670" width="72" height="58" as="geometry"/>
                </mxCell>
                <mxCell id="101" value="inputs_[1] 中的文件&lt;br&gt;也要遍历" style="ellipse;shape=cloud;whiteSpace=wrap;html=1;fillColor=#797979;" parent="1" vertex="1">
                    <mxGeometry x="160" y="783" width="155" height="100" as="geometry"/>
                </mxCell>
                <mxCell id="102" value="" style="shape=curlyBracket;whiteSpace=wrap;html=1;rounded=1;flipH=1;labelPosition=right;verticalLabelPosition=middle;align=left;verticalAlign=middle;fillColor=#797979;strokeWidth=3;strokeColor=#CAC0B7;" parent="1" vertex="1">
                    <mxGeometry x="615" y="448" width="20" height="311" as="geometry"/>
                </mxCell>
                <mxCell id="103" value="&lt;font style=&quot;font-size: 16px;&quot; color=&quot;#1a1a1a&quot;&gt;比较 iters[0]、&lt;/font&gt;&lt;span style=&quot;color: rgb(26, 26, 26); font-size: 16px;&quot;&gt;iters[1]、&lt;/span&gt;&lt;span style=&quot;color: rgb(26, 26, 26); font-size: 16px;&quot;&gt;iters[2] 后返回最小的 iters[0]&lt;/span&gt;" style="text;html=1;strokeColor=none;fillColor=none;align=center;verticalAlign=middle;whiteSpace=wrap;rounded=0;strokeWidth=3;" parent="1" vertex="1">
                    <mxGeometry x="664" y="558" width="195" height="64" as="geometry"/>
                </mxCell>
                <mxCell id="106" value="ace" style="rounded=1;whiteSpace=wrap;html=1;fontSize=16;fillColor=#CEABC5;" vertex="1" parent="1">
                    <mxGeometry x="280" y="1110" width="69" height="39" as="geometry"/>
                </mxCell>
                <mxCell id="107" value="avoid" style="rounded=1;whiteSpace=wrap;html=1;fontSize=16;fillColor=#CEABC5;" vertex="1" parent="1">
                    <mxGeometry x="370" y="1110" width="69" height="39" as="geometry"/>
                </mxCell>
                <mxCell id="108" value="boy" style="rounded=1;whiteSpace=wrap;html=1;fontSize=16;fillColor=#CEABC5;" vertex="1" parent="1">
                    <mxGeometry x="1160" y="1650" width="69" height="39" as="geometry"/>
                </mxCell>
                <mxCell id="113" value="boy" style="rounded=1;whiteSpace=wrap;html=1;fontSize=16;fillColor=#CEABC5;" vertex="1" parent="1">
                    <mxGeometry x="460" y="1110" width="69" height="39" as="geometry"/>
                </mxCell>
                <mxCell id="114" value="" style="rounded=1;whiteSpace=wrap;html=1;fontSize=16;fillColor=#DECECE;" vertex="1" parent="1">
                    <mxGeometry x="570" y="1100" width="270" height="60" as="geometry"/>
                </mxCell>
                <mxCell id="115" value="cat" style="rounded=1;whiteSpace=wrap;html=1;fontSize=16;fillColor=#CEABC5;" vertex="1" parent="1">
                    <mxGeometry x="580" y="1110" width="69" height="39" as="geometry"/>
                </mxCell>
                <mxCell id="116" value="dog" style="rounded=1;whiteSpace=wrap;html=1;fontSize=16;fillColor=#CEABC5;" vertex="1" parent="1">
                    <mxGeometry x="670" y="1110" width="69" height="39" as="geometry"/>
                </mxCell>
                <mxCell id="117" value="echo" style="rounded=1;whiteSpace=wrap;html=1;fontSize=16;fillColor=#CEABC5;" vertex="1" parent="1">
                    <mxGeometry x="760" y="1110" width="69" height="39" as="geometry"/>
                </mxCell>
                <mxCell id="118" value="&lt;font style=&quot;font-size: 16px;&quot; color=&quot;#1a1a1a&quot;&gt;Level2&lt;/font&gt;" style="text;html=1;strokeColor=none;fillColor=none;align=center;verticalAlign=middle;whiteSpace=wrap;rounded=0;strokeWidth=3;" vertex="1" parent="1">
                    <mxGeometry x="180" y="1110" width="105" height="41" as="geometry"/>
                </mxCell>
                <mxCell id="119" value="&lt;font style=&quot;font-size: 16px;&quot; color=&quot;#1a1a1a&quot;&gt;Table1&lt;/font&gt;" style="text;html=1;strokeColor=none;fillColor=none;align=center;verticalAlign=middle;whiteSpace=wrap;rounded=0;strokeWidth=3;" vertex="1" parent="1">
                    <mxGeometry x="350" y="1160" width="105" height="41" as="geometry"/>
                </mxCell>
                <mxCell id="120" value="&lt;font style=&quot;font-size: 16px;&quot; color=&quot;#1a1a1a&quot;&gt;Table2&lt;/font&gt;" style="text;html=1;strokeColor=none;fillColor=none;align=center;verticalAlign=middle;whiteSpace=wrap;rounded=0;strokeWidth=3;" vertex="1" parent="1">
                    <mxGeometry x="660" y="1160" width="105" height="41" as="geometry"/>
                </mxCell>
                <mxCell id="121" value="&lt;font style=&quot;font-size: 16px;&quot; color=&quot;#1a1a1a&quot;&gt;Level1&lt;/font&gt;" style="text;html=1;strokeColor=none;fillColor=none;align=center;verticalAlign=middle;whiteSpace=wrap;rounded=0;strokeWidth=3;" vertex="1" parent="1">
                    <mxGeometry x="180" y="1020" width="105" height="41" as="geometry"/>
                </mxCell>
                <mxCell id="122" value="" style="rounded=1;whiteSpace=wrap;html=1;fontSize=16;fillColor=#DECECE;" vertex="1" parent="1">
                    <mxGeometry x="270" y="1010" width="270" height="60" as="geometry"/>
                </mxCell>
                <mxCell id="123" value="ace" style="rounded=1;whiteSpace=wrap;html=1;fontSize=16;fillColor=#CEABC5;" vertex="1" parent="1">
                    <mxGeometry x="280" y="1020" width="69" height="39" as="geometry"/>
                </mxCell>
                <mxCell id="124" value="boy" style="rounded=1;whiteSpace=wrap;html=1;fontSize=16;fillColor=#CEABC5;" vertex="1" parent="1">
                    <mxGeometry x="370" y="1020" width="69" height="39" as="geometry"/>
                </mxCell>
                <mxCell id="125" value="echo" style="rounded=1;whiteSpace=wrap;html=1;fontSize=16;fillColor=#CEABC5;" vertex="1" parent="1">
                    <mxGeometry x="460" y="1020" width="69" height="39" as="geometry"/>
                </mxCell>
                <mxCell id="126" value="iters[0]" style="shape=callout;whiteSpace=wrap;html=1;perimeter=calloutPerimeter;fillColor=#797979;" vertex="1" parent="1">
                    <mxGeometry x="369" y="961" width="72" height="58" as="geometry"/>
                </mxCell>
                <mxCell id="130" value="iters[1]" style="shape=callout;whiteSpace=wrap;html=1;perimeter=calloutPerimeter;fillColor=#797979;" vertex="1" parent="1">
                    <mxGeometry x="580" y="1050" width="72" height="58" as="geometry"/>
                </mxCell>
                <mxCell id="131" value="" style="shape=curlyBracket;whiteSpace=wrap;html=1;rounded=1;flipH=1;labelPosition=right;verticalLabelPosition=middle;align=left;verticalAlign=middle;fillColor=#797979;strokeWidth=3;strokeColor=#CAC0B7;" vertex="1" parent="1">
                    <mxGeometry x="850" y="950" width="20" height="210" as="geometry"/>
                </mxCell>
                <mxCell id="132" value="&lt;font color=&quot;#1a1a1a&quot;&gt;&lt;span style=&quot;font-size: 16px;&quot;&gt;iters 中最多有两个元素，只需要比较一次&lt;/span&gt;&lt;/font&gt;" style="text;html=1;strokeColor=none;fillColor=none;align=center;verticalAlign=middle;whiteSpace=wrap;rounded=0;strokeWidth=3;" vertex="1" parent="1">
                    <mxGeometry x="880" y="1020" width="190" height="80" as="geometry"/>
                </mxCell>
            </root>
        </mxGraphModel>
    </diagram>
</mxfile>